HIERARCHY
ROOT Hips
{
	OFFSET -3.958830 18.904000 13.208200
	CHANNELS 6 Xposition Yposition Zposition Zrotation Yrotation Xrotation 
	JOINT LHipJoint
	{
		OFFSET 0.000000 0.000000 0.000000
		CHANNELS 3 Zrotation Yrotation Xrotation
		JOINT LeftUpLeg
		{
			OFFSET 1.800000 -1.400000 0.085000
			CHANNELS 3 Zrotation Yrotation Xrotation
			JOINT LeftLeg
			{
				OFFSET 2.215000 -6.000000 0.000000
				CHANNELS 3 Zrotation Yrotation Xrotation
				JOINT LeftFoot
				{
					OFFSET 2.500000 -6.900000 0.000000
					CHANNELS 3 Zrotation Yrotation Xrotation
					JOINT LeftToeBase
					{
						OFFSET 0.200000 -0.500000 1.950000
						CHANNELS 3 Zrotation Yrotation Xrotation
						End Site
						{
							OFFSET 0.000000 0.000000 0.000000
						}
					}
				}
			}
		}
	}
	JOINT RHipJoint
	{
		OFFSET 0.000000 0.000000 0.000000
		CHANNELS 3 Zrotation Yrotation Xrotation
		JOINT RightUpLeg
		{
			OFFSET -1.800000 -1.400000 0.085000
			CHANNELS 3 Zrotation Yrotation Xrotation
			JOINT RightLeg
			{
				OFFSET -2.215000 -6.000000 0.000000
				CHANNELS 3 Zrotation Yrotation Xrotation
				JOINT RightFoot
				{
					OFFSET -2.500000 -6.900000 0.000000
					CHANNELS 3 Zrotation Yrotation Xrotation
					JOINT RightToeBase
					{
						OFFSET -0.200000 -0.500000 1.950000
						CHANNELS 3 Zrotation Yrotation Xrotation
						End Site
						{
							OFFSET 0.000000 0.000000 0.000000
						}
					}
				}
			}
		}
	}
	JOINT LowerBack
	{
		OFFSET 0.000000 0.000000 0.000000
		CHANNELS 3 Zrotation Yrotation Xrotation
		JOINT Spine
		{
			OFFSET -0.087000 1.940000 -0.288900
			CHANNELS 3 Zrotation Yrotation Xrotation
			JOINT Spine1
			{
				OFFSET 0.000000 1.950000 0.060000
				CHANNELS 3 Zrotation Yrotation Xrotation
				JOINT Neck
				{
					OFFSET 0.000000 0.000000 0.000000
					CHANNELS 3 Zrotation Yrotation Xrotation
					JOINT Neck1
					{
						OFFSET 0.000000 1.600000 0.340000
						CHANNELS 3 Zrotation Yrotation Xrotation
						JOINT Head
						{
							OFFSET 0.000000 1.667000 -0.240000
							CHANNELS 3 Zrotation Yrotation Xrotation
							End Site
							{
								OFFSET 0.000000 0.000000 0.000000
							}
						}
					}
				}
				JOINT LeftShoulder
				{
					OFFSET 0.000000 0.000000 0.000000
					CHANNELS 3 Zrotation Yrotation Xrotation
					JOINT LeftArm
					{
						OFFSET 2.700000 1.550000 -0.730000
						CHANNELS 3 Zrotation Yrotation Xrotation
						JOINT LeftForeArm
						{
							OFFSET 5.450000 0.000000 0.000000
							CHANNELS 3 Zrotation Yrotation Xrotation
							JOINT LeftHand
							{
								OFFSET 3.450000 0.000000 0.000000
								CHANNELS 3 Zrotation Yrotation Xrotation
								JOINT LeftHandIndex1
								{
									OFFSET 0.750000 0.000000 0.000000
									CHANNELS 3 Zrotation Yrotation Xrotation
									End Site
									{
										OFFSET 0.000000 0.000000 0.000000
									}
								}
							}
						}
					}
				}
				JOINT RightShoulder
				{
					OFFSET 0.000000 0.000000 0.000000
					CHANNELS 3 Zrotation Yrotation Xrotation
					JOINT RightArm
					{
						OFFSET -2.700000 1.550000 -0.730000
						CHANNELS 3 Zrotation Yrotation Xrotation
						JOINT RightForeArm
						{
							OFFSET -5.450000 0.000000 0.000000
							CHANNELS 3 Zrotation Yrotation Xrotation
							JOINT RightHand
							{
								OFFSET -3.450000 0.000000 0.000000
								CHANNELS 3 Zrotation Yrotation Xrotation
								JOINT RightHandIndex1
								{
									OFFSET -0.750000 0.000000 0.000000
									CHANNELS 3 Zrotation Yrotation Xrotation
									End Site
									{
										OFFSET 0.000000 0.000000 0.000000
									}
								}
							}
						}
					}
				}
			}
		}
	}
}
MOTION
Frames: 6
Frame Time: 0.016667
-2.253910 17.448510 -0.611950 -2.560096 -19.456454 -11.024411 -14.489077 13.031183 0.231501 18.940746 8.889522 -7.384063 16.903547 4.457976 31.320650 -0.241018 6.385321 2.476936 0.268710 0.216280 -0.267340 18.955789 -10.229142 6.422651 -39.397809 14.750103 -19.317242 54.101754 -10.948210 12.232963 -1.872749 -8.506006 1.079891 0.016080 0.870620 0.879410 -5.721817 1.181314 -8.187976 19.093440 0.474837 20.147280 -10.179633 2.428539 26.064071 5.505181 -7.689012 -20.216103 -12.437441 12.756765 59.255076 -3.178940 0.505990 -16.614100 -13.528831 -25.077551 12.691201 -51.593429 9.469411 -12.242030 -36.033501 -17.110938 -2.151963 -3.708977 2.767419 0.894260 0.228530 0.522620 0.584290 5.909285 35.710954 16.304898 57.131563 59.716540 1.639534 -34.514782 77.362741 -32.905671 1.644517 -0.094430 -0.098810 0.625450 0.269730 0.390690 
-2.330140 17.457380 -0.597490 -2.643736 -18.950677 -11.089068 -14.443851 12.907875 0.205609 19.701670 8.738121 -6.378586 16.468769 4.400056 29.865909 -0.261351 6.262595 2.552324 0.255280 0.193770 -0.313230 19.016699 -10.265894 6.423111 -39.620200 14.276030 -18.109379 53.367426 -10.115884 10.541873 -1.838797 -8.421795 1.107997 0.005080 0.925580 0.897140 -5.896768 1.408879 -8.132803 19.766960 0.425713 19.480677 -10.827431 2.327620 26.477929 5.439250 -7.948121 -19.966807 -12.816765 12.916059 58.467985 -1.896940 -0.045240 -16.386900 -12.684292 -24.537826 12.653106 -51.616157 9.694856 -12.601789 -37.144818 -18.569129 -1.735800 -3.715502 2.802206 0.889210 0.247760 0.500790 0.609370 5.292736 35.102061 16.315378 57.477103 60.296294 2.845049 -42.758580 79.326040 -39.289754 1.661116 0.249742 -0.103190 0.636200 0.286940 0.414300 
-2.485570 17.463620 -0.582840 -2.404343 -18.526894 -11.120472 -14.414914 12.771558 0.192588 20.766758 8.603977 -4.799193 15.699179 4.437509 27.643043 -0.266827 6.086759 2.673617 0.201380 0.151580 -0.396190 19.069409 -10.314318 6.371388 -39.914321 13.449253 -16.887044 51.626750 -9.374253 8.988143 -1.741275 -8.328781 1.160729 -0.003360 1.012390 0.860480 -6.040778 1.626732 -8.045164 19.443794 0.531260 18.257096 -10.854269 2.154632 27.196571 4.973152 -8.572826 -19.662722 -13.652640 13.410794 56.745920 -0.483230 -0.516660 -14.942700 -10.713257 -22.861328 12.214589 -52.799721 9.943535 -13.495724 -39.304108 -21.218651 -0.836894 -3.727469 2.836188 0.836290 0.286920 0.431440 0.635510 4.480956 33.672343 16.492762 58.858576 61.851930 5.809094 -50.986403 81.466919 -46.051624 1.698100 0.670821 -0.136870 0.672260 0.304500 0.449970 
-2.673320 17.451570 -0.558320 -2.326357 -17.731789 -10.863069 -14.391575 12.541948 0.202419 22.377949 8.352753 -3.259225 14.399326 4.568196 24.780240 -0.247552 5.877894 2.791044 0.184800 0.134780 -0.436370 19.130973 -10.345881 6.297122 -40.113106 12.515809 -15.426117 49.860758 -8.622428 7.102553 -1.658829 -8.264717 1.191853 -0.013720 1.058810 0.868710 -6.187023 1.951306 -7.945131 19.314102 1.031448 16.258822 -10.966423 2.283595 27.976100 4.719940 -8.424451 -19.189064 -12.697291 13.078197 55.659485 0.059210 -0.718440 -12.728280 -8.364845 -20.735397 11.406291 -53.224310 9.312376 -13.471527 -41.887048 -22.615259 0.075768 -3.745356 2.933764 0.763970 0.331290 0.379980 0.660920 2.740128 31.213825 16.912186 61.530536 63.695860 9.535820 -65.847444 83.579388 -58.433993 1.773261 1.557843 -0.123210 0.634880 0.290890 0.479640 
-2.870030 17.436540 -0.541960 -2.236506 -17.079574 -10.741665 -14.389204 12.314456 0.228412 23.971299 8.109791 -1.812318 13.277703 4.708751 22.322527 -0.237697 5.804798 2.862596 0.122260 0.070880 -0.498680 19.173596 -10.332528 6.197049 -40.098247 11.694908 -13.802501 48.472199 -8.067215 5.476102 -1.581833 -8.239083 1.212508 -0.036750 1.123470 0.848090 -6.274208 2.185037 -7.813046 19.171680 1.213891 14.514600 -11.293459 2.296857 28.575891 4.239844 -8.572110 -18.611495 -12.494285 13.294806 54.112265 0.492690 -0.720000 -10.875390 -6.431547 -18.937618 10.941640 -53.342894 9.578072 -13.828844 -45.999567 -24.080741 1.113497 -3.776559 2.980559 0.709450 0.375700 0.310200 0.657490 1.787951 29.244115 16.922223 63.633550 64.146824 13.545173 -85.437801 84.780852 -76.260649 1.880398 4.281899 -0.148340 0.637170 0.320030 0.495840 
-3.058920 17.418620 -0.522710 -2.262987 -16.722361 -10.358089 -14.338466 11.977673 0.261624 25.471573 7.752158 -0.594488 11.755134 4.956892 20.166969 -0.204042 5.787531 2.925771 0.032460 -0.063010 -0.551140 19.264351 -10.358410 6.190742 -40.048501 11.102720 -12.453138 48.162824 -7.424931 3.617203 -1.522163 -8.253502 1.228895 -0.101660 1.189350 0.825260 -6.504865 2.781045 -7.721378 19.711199 1.907791 12.281464 -11.675869 3.058498 28.130208 4.050513 -8.677473 -17.476727 -11.436400 13.308529 54.126589 0.722240 -0.647110 -6.945540 -5.254712 -19.254406 12.137321 -53.031147 11.422845 -14.702414 -50.876012 -26.355370 2.591269 -3.786948 3.024784 0.662250 0.420520 0.223690 0.646280 1.199018 30.456396 13.798259 62.675269 56.520922 24.412404 -108.851856 73.221193 -108.432272 3.177952 2.951028 -0.187100 0.616250 0.350380 0.495860 
